<?xml version="1.0" standalone="no"?>
<!DOCTYPE svg PUBLIC "-//W3C//DTD SVG 20010904//EN"
 "http://www.w3.org/TR/2001/REC-SVG-20010904/DTD/svg10.dtd">
<svg version="1.0" xmlns="http://www.w3.org/2000/svg"
 width="501.000000pt" height="501.000000pt" viewBox="0 0 501.000000 501.000000"
 preserveAspectRatio="xMidYMid meet">

<g transform="translate(0.000000,501.000000) scale(0.100000,-0.100000)"
fill="#000000" stroke="none">
<path d="M2248 4920 c-402 -46 -770 -179 -1093 -395 -144 -96 -228 -165 -349
-282 -392 -383 -629 -851 -713 -1410 -22 -152 -22 -498 1 -658 78 -544 317
-1021 703 -1402 351 -347 802 -578 1294 -663 154 -26 483 -42 623 -29 736 67
1399 463 1806 1076 199 299 320 606 381 964 20 114 23 171 23 384 1 219 -2
265 -22 375 -63 341 -158 603 -317 869 -239 401 -593 727 -1010 931 -237 116
-459 186 -710 225 -127 20 -496 29 -617 15z m917 -986 l482 -275 -363 -537
c-200 -294 -363 -537 -361 -538 1 -1 48 2 105 8 116 10 246 -1 329 -28 271
-88 171 -388 -237 -705 -134 -105 -321 -227 -640 -416 -162 -97 -351 -210
-420 -253 -69 -42 -231 -132 -360 -200 -129 -67 -259 -136 -287 -152 -29 -16
-53 -27 -53 -24 0 4 321 219 713 480 727 483 834 562 878 647 72 142 -17 120
-626 -151 -381 -170 -410 -180 -520 -180 -298 0 -481 232 -446 567 21 198 75
342 199 528 132 200 322 396 655 677 105 89 254 216 331 283 l139 120 -6 213
c-2 116 -2 212 1 212 3 0 222 -124 487 -276z"/>
<path d="M2378 2687 c-331 -148 -369 -171 -408 -247 -38 -74 -33 -157 10 -180
47 -25 91 -11 407 130 172 77 318 140 325 140 8 0 9 26 4 92 -3 50 -6 117 -6
150 0 32 -3 58 -7 57 -5 0 -151 -64 -325 -142z"/>
</g>
</svg>
