<svg id="Layer_1" data-name="Layer 1" xmlns="http://www.w3.org/2000/svg" viewBox="0 0 150 100"><defs><style>.cls-1,.cls-3{fill:#2f4e6f;}.cls-2{fill:#b2c4d2;}.cls-3{font-size:80.23px;font-family:RobotoSlab-Regular, Roboto Slab;letter-spacing:0em;}.cls-4{letter-spacing:-0.02em;}.cls-5{letter-spacing:-0.01em;}.cls-6,.cls-7,.cls-8{font-family:RobotoSlab-Thin, Roboto Slab;font-weight:200;}.cls-7{letter-spacing:-0.01em;}.cls-8{letter-spacing:-0.01em;}</style></defs><title>social-work-degree_logoArtboard 5 copy</title><path class="cls-1" d="M35.53,19.22c-3.8,3.42-11,14.06,2.79,23.58S60,56.16,65.52,59.44s4,11.69-3.56,8.38S42.35,55.37,39.06,56.29,59.34,70.44,65.24,73.54s4.88,12.68-4.57,8.36S34.05,66.35,33.42,67.67,49.21,80.1,56.81,84.29s2.81,10.89-4.31,8c-6.72-2.72-23.77-15.64-24.64-15.18S39.62,87.94,44,90.37c6,3.36,1.56,9-5.82,4.72-22.61-13-28.77-21.88-33.61-33-7.42-17-4.65-34.8,22-51.16C34.6,6,49.93,6.28,35.53,19.22Z"/><path class="cls-2" d="M75.11,79.4c3.81-3.42,11-14.06-2.78-23.58S50.68,42.46,45.14,39.18s-4-11.69,3.55-8.38S68.29,43.26,71.6,42.33,51.31,28.18,45.41,25.08,40.53,12.4,50,16.72,76.6,32.27,77.23,31s-15.8-12.42-23.4-16.62-2.8-10.89,4.32-8C64.86,9.05,81.92,22,82.78,21.51S71,10.69,66.66,8.25c-6-3.35-1.56-9,5.82-4.72,22.61,13,28.77,21.88,33.61,33,7.42,17,4.65,34.79-22,51.15C76.05,92.6,60.72,92.35,75.11,79.4Z"/><text class="cls-3" transform="translate(131.23 77.87)">Social <tspan class="cls-4" x="250.06" y="0">W</tspan><tspan x="323.27" y="0">o</tspan><tspan class="cls-5" x="367.88" y="0">r</tspan><tspan x="399.87" y="0">k </tspan><tspan class="cls-6" x="467.78" y="0">Deg</tspan><tspan class="cls-7" x="608.78" y="0">r</tspan><tspan class="cls-8" x="639.09" y="0">ee</tspan></text></svg>